<svg id="Layer_1" data-name="Layer 1" xmlns="http://www.w3.org/2000/svg" viewBox="0 0 84.79 101.26"><defs><style>.cls-1{fill:#ffffff;}</style></defs><path class="cls-1" d="M2.47,14a92.26,92.26,0,0,0,9.36-1.26C17.35,11.38,21.91,8.69,25.16,4A4.2,4.2,0,0,1,28.8,1.77c10.63,0,21.27,0,31.91,0a12.07,12.07,0,0,1,1.79.35c4.11,10.49,13.57,12.33,23.31,13.17,1.25,5.24.11,9.86-.69,14.37A136.08,136.08,0,0,1,66.77,78.4a103.22,103.22,0,0,1-20.68,23.73c-1.79,1.53-3.11.91-4.68-.4C29.32,91.57,20.46,79,13.87,64.76a137.64,137.64,0,0,1-12.23-46A7.3,7.3,0,0,1,2.47,14ZM77.6,42.12c1.89-7.68,3.73-14.82,3.85-22.48-9-1.88-17.38-4.57-22-13.26H29.23c-5.53,7.77-13.52,11-22.69,12.05C6.54,26,8.38,33,9.87,39.94c3.38,1.62,3.38,1.62,3.78,4.27l-2,2.22c3.5,11,7.86,21.63,14.83,31.33.7-1.12.79-2,.35-2.41-2.13-2.23-1.68-5-1.7-7.63-.09-8-.05-16.1,0-24.16,0-6.05,2.3-7.87,8.49-6.77,1.9-3,5-2.09,7.94-2.17,2.31-3.08,5.35-3.13,8.77-1.83l1.36,2.29a9.39,9.39,0,0,1,7.36.46,8.55,8.55,0,0,1,1,2c.86,4,0,8.13.48,12.16,6.26,6.75,4.79,18-3.09,26.63,0,1-.07,2,0,3.13s-.39,2.15.69,3.35A117,117,0,0,0,76.89,44.23c-1.58.31-2.13,1.64-3.84,1.24-1.37-.52-1.77-1.87-.74-3.35C73.59,40.29,75.31,40,77.6,42.12ZM31.85,80.24c-.15,2.05-.7,4.07.54,5.67A92.5,92.5,0,0,0,44,97.74c5.22-5.26,12.53-9,9.34-18.29-1.57.43-2.81-.2-3.59-2.2,2.1-2.9,5.55-4.64,7.8-7.42,2.26-5.64,5.23-11.25-.05-16.73-4.44-2-8.89-1-13.85-1.08,2.84,6.18,8.32,3,12.2,4.7a23.33,23.33,0,0,1,1.2,3,4.5,4.5,0,0,1-3.27,5.75c-3.26.54-4.08,3.09-5.06,5.56-.36.89,0,2-.79,2.79a1.94,1.94,0,0,1-2.72-.61,11,11,0,0,1,.93-7.09c1.13-2.32,4.28-2.53,5.14-5.47-3.17.25-6.06-.2-8.23-2.3-4.72,2.06-9.63-.88-14.1,1.44-1.12,7.18-.55,13.82,7,17.42C34.84,79.75,34.84,79.75,31.85,80.24Zm7-28.88a21.33,21.33,0,0,0,1.24-12.67,2.16,2.16,0,0,0-3.25.9V54.38c1.22.56,2.11.85,3.06-.12ZM29,41.38V54.55c1.35.73,2.42.93,3.71-.56-.15-4,.47-8.44-.32-12.6A2.53,2.53,0,0,0,29,41.38ZM45,37V48.08c1.42.22,2.66.5,3.75-.17V37.36A5,5,0,0,0,45,37Zm9.44.49c-2.81,3.76-1.34,7.24-1.68,10.62,1.48.06,2.54.37,3.89-.3C56,44.68,58.07,41.05,54.42,37.49Z" transform="translate(-1.57 -1.77)"/><path class="cls-1" d="M44,16.11c1.17,2.82,1.15,3.24-.28,5.73.42,1.59,1,3.28.37,5.12-1.23.71-2.39.82-3.34-.48-1.22-1.67-.6-3.14.62-4.34C39.57,17.81,40.43,15.84,44,16.11Z" transform="translate(-1.57 -1.77)"/><path class="cls-1" d="M64.11,22c2.75,1.76,2.51,3-1.09,6.4-.65,1.87-.2,4.72-3.61,4.15C57.89,29.83,60,25,64.11,22Z" transform="translate(-1.57 -1.77)"/><path class="cls-1" d="M26.92,29.58a3.49,3.49,0,0,1-.33,2.52,1.5,1.5,0,0,1-1.61.53c-2.25-.58-1.91-2.73-2.56-4.4a12.1,12.1,0,0,1-3.53-4.46c.4-1.58,1.51-1.74,3.37-1.57l2,3.08C23.73,26.9,25.86,27.93,26.92,29.58Z" transform="translate(-1.57 -1.77)"/></svg>